<?xml version="1.0" encoding="UTF-8" standalone="no"?>
<svg
   xmlns:dc="http://purl.org/dc/elements/1.1/"
   xmlns:cc="http://creativecommons.org/ns#"
   xmlns:rdf="http://www.w3.org/1999/02/22-rdf-syntax-ns#"
   xmlns:svg="http://www.w3.org/2000/svg"
   xmlns="http://www.w3.org/2000/svg"
   xmlns:sodipodi="http://sodipodi.sourceforge.net/DTD/sodipodi-0.dtd"
   xmlns:inkscape="http://www.inkscape.org/namespaces/inkscape"
   width="344"
   height="59"
   viewBox="0 0 344 59"
   fill="none"
   version="1.1"
   id="svg4"
   sodipodi:docname="mur_design_studio.svg"
   inkscape:version="1.0 (4035a4fb49, 2020-05-01)">
  <metadata
     id="metadata10">
    <rdf:RDF>
      <cc:Work
         rdf:about="">
        <dc:format>image/svg+xml</dc:format>
        <dc:type
           rdf:resource="http://purl.org/dc/dcmitype/StillImage" />
      </cc:Work>
    </rdf:RDF>
  </metadata>
  <defs
     id="defs8" />
  <sodipodi:namedview
     inkscape:document-rotation="0"
     pagecolor="#ffffff"
     bordercolor="#666666"
     borderopacity="1"
     objecttolerance="10"
     gridtolerance="10"
     guidetolerance="10"
     inkscape:pageopacity="0"
     inkscape:pageshadow="2"
     inkscape:window-width="1280"
     inkscape:window-height="961"
     id="namedview6"
     showgrid="false"
     inkscape:zoom="1.3566584"
     inkscape:cx="116.50043"
     inkscape:cy="10.706946"
     inkscape:window-x="-8"
     inkscape:window-y="-8"
     inkscape:window-maximized="1"
     inkscape:current-layer="svg4" />
  <path
     d="M0 35.7363V0.926326H7.08V35.7363H0ZM8.85 35.7363V0.926326H14.16V35.7363H8.85ZM15.93 35.7363V0.926326H17.7V35.7363H15.93ZM5.074 44.5273H6.549V45.5303C6.785 45.1763 7.08 44.8813 7.434 44.6453C7.788 44.4093 8.16167 44.2913 8.555 44.2913C8.98767 44.2913 9.381 44.429 9.735 44.7043C10.0497 44.9797 10.2463 45.3337 10.325 45.7663C10.5217 45.3337 10.8363 44.9797 11.269 44.7043C11.6623 44.429 12.1147 44.2913 12.626 44.2913C13.2553 44.2913 13.747 44.5273 14.101 44.9993C14.4157 45.4713 14.5533 46.1007 14.514 46.8873V54.5573H13.098V47.4773C13.098 46.612 13.0193 46.0613 12.862 45.8253C12.7047 45.5893 12.4687 45.4713 12.154 45.4713C11.8787 45.4713 11.623 45.5893 11.387 45.8253C11.151 46.0613 10.9543 46.376 10.797 46.7693C10.6397 47.1627 10.561 47.556 10.561 47.9493V54.5573H9.086V47.5953C9.086 46.7693 9.00733 46.2187 8.85 45.9433C8.69267 45.6287 8.39767 45.4713 7.965 45.4713C7.76833 45.4713 7.552 45.5697 7.316 45.7663C7.08 45.963 6.88333 46.258 6.726 46.6513C6.608 47.0053 6.549 47.4183 6.549 47.8903V54.5573H5.074V44.5273ZM20.3596 35.7363V0.926326H22.1296V35.7363H20.3596ZM25.6696 35.7363V0.926326H32.7496V35.7363H25.6696ZM36.2896 35.7363V0.926326H38.0596V35.7363H36.2896ZM29.4456 54.7933C28.3836 54.7933 27.5379 54.4 26.9086 53.6133C26.2793 52.8267 25.9843 51.6663 26.0236 50.1323V44.5273H27.5576V50.1323C27.5576 51.3123 27.7739 52.1777 28.2066 52.7283C28.5999 53.279 29.1506 53.5543 29.8586 53.5543C30.6059 53.5543 31.2353 53.2397 31.7466 52.6103C32.2973 52.0203 32.5726 51.1747 32.5726 50.0733V44.5273H34.1066V53.0233C34.1066 53.3773 34.1066 53.6527 34.1066 53.8493C34.1459 54.0853 34.2049 54.3213 34.2836 54.5573H32.8086C32.6906 54.3213 32.6316 54.0853 32.6316 53.8493C32.5923 53.6527 32.5726 53.3773 32.5726 53.0233C32.2579 53.574 31.8253 54.0067 31.2746 54.3213C30.7239 54.636 30.1143 54.7933 29.4456 54.7933ZM40.7192 35.7363V0.926326H42.4892V35.7363H40.7192ZM46.0292 35.7363V0.926326H47.7992V35.7363H46.0292ZM51.3392 35.7363V0.926326H58.4192V35.7363H51.3392ZM52.3422 44.2913C53.4042 44.2913 54.2892 44.665 54.9972 45.4123L54.2892 46.5923L54.2302 46.8283L54.0532 46.7103C54.0139 46.553 53.9746 46.435 53.9352 46.3563C53.8566 46.2383 53.7189 46.1203 53.5222 46.0023C53.1682 45.7663 52.7356 45.6483 52.2242 45.6483C51.7129 45.6483 51.2212 45.786 50.7492 46.0613C50.2772 46.2973 49.9036 46.6907 49.6282 47.2413C49.3136 47.792 49.1562 48.4607 49.1562 49.2473V54.5573H47.5632V44.5273H49.2152L49.1562 46.3563C49.4316 45.727 49.8642 45.2157 50.4542 44.8223C51.0442 44.4683 51.6736 44.2913 52.3422 44.2913ZM61.0788 35.7363V0.926326H64.6188V35.7363H61.0788ZM66.3888 35.7363V0.926326H69.9288V35.7363H66.3888ZM73.4688 35.7363V0.926326H77.0088V35.7363H73.4688ZM81.4384 35.7363V0.926326H83.2084V35.7363H81.4384ZM90.2884 35.7363V0.926326H92.0584V35.7363H90.2884ZM95.5984 35.7363V0.926326H99.1384V35.7363H95.5984ZM90.8194 54.7933C90.1114 54.7933 89.4428 54.577 88.8134 54.1443C88.1841 53.751 87.6728 53.161 87.2794 52.3743C86.8861 51.5483 86.6894 50.565 86.6894 49.4243C86.6894 48.2837 86.8861 47.32 87.2794 46.5333C87.7121 45.786 88.2431 45.2157 88.8724 44.8223C89.5018 44.4683 90.1704 44.2913 90.8784 44.2913C91.5864 44.2913 92.1764 44.429 92.6484 44.7043C93.1598 45.019 93.5531 45.4517 93.8284 46.0023V39.9843H95.4804V40.1023C95.4018 40.2203 95.3428 40.3187 95.3034 40.3973C95.3034 40.5153 95.3034 40.6923 95.3034 40.9283V53.0233C95.3034 53.3773 95.3231 53.6527 95.3624 53.8493C95.3624 54.0853 95.4214 54.3213 95.5394 54.5573H94.0054C93.8874 54.3213 93.8088 54.0853 93.7694 53.8493C93.7694 53.6527 93.7694 53.3773 93.7694 53.0233C93.4548 53.574 93.0418 54.0067 92.5304 54.3213C92.0191 54.636 91.4488 54.7933 90.8194 54.7933ZM91.0554 53.3773C91.9601 53.3773 92.6288 53.0233 93.0614 52.3153C93.4941 51.6073 93.7104 50.6633 93.7104 49.4833C93.7104 48.3033 93.4744 47.3593 93.0024 46.6513C92.5304 45.9433 91.8421 45.5893 90.9374 45.5893C90.0721 45.5893 89.4034 45.904 88.9314 46.5333C88.4594 47.202 88.2234 48.087 88.2234 49.1883C88.2234 50.4863 88.4594 51.509 88.9314 52.2563C89.4428 53.0037 90.1508 53.3773 91.0554 53.3773ZM101.798 35.7363V0.926326H103.568V35.7363H101.798ZM105.338 35.7363V0.926326H108.878V35.7363H105.338ZM112.418 35.7363V0.926326H114.188V35.7363H112.418ZM112.005 54.7933C110.51 54.7933 109.33 54.341 108.465 53.4363C107.56 52.5317 107.108 51.2533 107.108 49.6013C107.108 48.5 107.324 47.5363 107.757 46.7103C108.15 45.9237 108.701 45.3337 109.409 44.9403C110.078 44.5077 110.845 44.2913 111.71 44.2913C112.929 44.2913 113.913 44.6847 114.66 45.4713C115.407 46.2973 115.781 47.497 115.781 49.0703C115.781 49.2277 115.781 49.4637 115.781 49.7783H108.642C108.681 50.9977 109.016 51.922 109.645 52.5513C110.274 53.1807 111.081 53.4953 112.064 53.4953C113.126 53.4953 113.991 53.1217 114.66 52.3743L115.545 53.2593C114.68 54.282 113.5 54.7933 112.005 54.7933ZM114.188 48.5393C114.188 47.5953 113.952 46.848 113.48 46.2973C113.008 45.7467 112.379 45.4713 111.592 45.4713C110.884 45.4713 110.255 45.727 109.704 46.2383C109.153 46.7497 108.819 47.5167 108.701 48.5393H114.188ZM122.158 35.7363V0.926326H123.928V35.7363H122.158ZM125.698 35.7363V0.926326H132.778V35.7363H125.698ZM136.318 35.7363V0.926326H138.088V35.7363H136.318ZM131.893 54.7933C130.201 54.7933 128.785 54.2623 127.645 53.2003L128.53 51.7253L128.648 51.4893L128.825 51.6073C128.825 51.6467 128.825 51.7057 128.825 51.7843C128.864 51.9023 128.903 52.0007 128.943 52.0793C129.021 52.1973 129.1 52.3153 129.179 52.4333C129.533 52.748 129.926 53.0037 130.359 53.2003C130.791 53.3577 131.322 53.4363 131.952 53.4363C132.738 53.4363 133.368 53.2987 133.84 53.0233C134.272 52.748 134.489 52.3547 134.489 51.8433C134.489 51.4107 134.312 51.0567 133.958 50.7813C133.604 50.506 132.935 50.2307 131.952 49.9553C129.434 49.208 128.176 48.1657 128.176 46.8283C128.176 46.0417 128.51 45.432 129.179 44.9993C129.808 44.5273 130.713 44.2913 131.893 44.2913C132.797 44.2913 133.564 44.429 134.194 44.7043C134.823 44.9403 135.393 45.3337 135.905 45.8843L134.961 46.9463L134.843 47.1233L134.725 47.0053C134.725 46.848 134.685 46.73 134.607 46.6513C134.567 46.5333 134.469 46.4153 134.312 46.2973C133.958 46.022 133.584 45.8253 133.191 45.7073C132.758 45.55 132.345 45.4713 131.952 45.4713C131.322 45.4713 130.791 45.5893 130.359 45.8253C129.965 46.022 129.769 46.317 129.769 46.7103C129.769 47.1037 129.985 47.438 130.418 47.7133C130.811 48.028 131.539 48.3427 132.601 48.6573C133.859 49.0507 134.744 49.4637 135.256 49.8963C135.806 50.329 136.082 50.919 136.082 51.6663C136.082 52.571 135.728 53.3183 135.02 53.9083C134.312 54.4983 133.269 54.7933 131.893 54.7933ZM142.517 35.7363V0.926326H144.287V35.7363H142.517ZM151.367 35.7363V0.926326H154.907V35.7363H151.367ZM156.677 35.7363V0.926326H158.447V35.7363H156.677ZM148.948 53.2593H151.544V45.8253H149.066V44.5273H153.078V53.2593H155.438V54.5573H148.948V53.2593ZM152.252 42.4033C151.938 42.4033 151.662 42.305 151.426 42.1083C151.23 41.8723 151.131 41.597 151.131 41.2823C151.131 40.9677 151.23 40.712 151.426 40.5153C151.623 40.2793 151.898 40.1613 152.252 40.1613C152.528 40.1613 152.783 40.2793 153.019 40.5153C153.255 40.7513 153.373 41.007 153.373 41.2823C153.373 41.597 153.255 41.8723 153.019 42.1083C152.783 42.305 152.528 42.4033 152.252 42.4033ZM162.877 35.7363V0.926326H164.647V35.7363H162.877ZM168.187 35.7363V0.926326H171.727V35.7363H168.187ZM173.497 35.7363V0.926326H175.267V35.7363H173.497ZM177.568 45.5893C177.411 45.55 177.214 45.5303 176.978 45.5303C176.27 45.5303 175.68 45.6877 175.208 46.0023C175.483 46.5137 175.621 47.0643 175.621 47.6543C175.621 48.323 175.464 48.913 175.149 49.4243C174.874 49.975 174.461 50.4077 173.91 50.7223C173.399 50.9977 172.789 51.1353 172.081 51.1353C171.53 51.1353 171.019 51.037 170.547 50.8403C170.272 51.155 170.134 51.4697 170.134 51.7843C170.134 52.1383 170.35 52.394 170.783 52.5513C171.255 52.7087 172.061 52.7873 173.202 52.7873C174.618 52.7873 175.582 52.984 176.093 53.3773C176.604 53.81 176.86 54.459 176.86 55.3243C176.86 56.1897 176.526 56.8977 175.857 57.4483C175.149 58.0383 174.048 58.3333 172.553 58.3333C171.098 58.3333 169.977 58.117 169.19 57.6843C168.364 57.2517 167.951 56.6027 167.951 55.7373C167.951 55.226 168.108 54.7737 168.423 54.3803C168.698 53.987 169.072 53.692 169.544 53.4953C169.033 53.1807 168.777 52.7283 168.777 52.1383C168.777 51.5483 169.072 50.9387 169.662 50.3093C169.308 49.9947 169.033 49.6013 168.836 49.1293C168.679 48.6967 168.6 48.205 168.6 47.6543C168.6 47.025 168.738 46.435 169.013 45.8843C169.288 45.3337 169.701 44.9207 170.252 44.6453C170.763 44.3307 171.373 44.1733 172.081 44.1733C173.143 44.1733 174.008 44.5077 174.677 45.1763C174.992 44.8617 175.346 44.6257 175.739 44.4683C176.093 44.311 176.506 44.2323 176.978 44.2323L177.332 44.2913L177.568 45.5893ZM172.081 49.8373C172.71 49.8373 173.241 49.621 173.674 49.1883C174.067 48.795 174.264 48.2837 174.264 47.6543C174.264 47.025 174.067 46.494 173.674 46.0613C173.241 45.668 172.71 45.4713 172.081 45.4713C171.452 45.4713 170.921 45.668 170.488 46.0613C170.095 46.494 169.898 47.025 169.898 47.6543C169.898 48.2837 170.095 48.795 170.488 49.1883C170.921 49.621 171.452 49.8373 172.081 49.8373ZM175.444 55.5603C175.444 55.2063 175.385 54.931 175.267 54.7343C175.149 54.5377 174.893 54.3803 174.5 54.2623C174.146 54.1837 173.595 54.1443 172.848 54.1443C171.825 54.1443 170.999 54.046 170.37 53.8493C170.016 54.0853 169.76 54.3213 169.603 54.5573C169.485 54.8327 169.426 55.167 169.426 55.5603C169.426 56.0717 169.701 56.465 170.252 56.7403C170.803 57.0157 171.57 57.1533 172.553 57.1533C173.536 57.1533 174.264 57.0157 174.736 56.7403C175.208 56.4257 175.444 56.0323 175.444 55.5603ZM183.236 35.7363V0.926326H186.776V35.7363H183.236ZM193.856 35.7363V0.926326H195.626V35.7363H193.856ZM197.396 35.7363V0.926326H199.166V35.7363H197.396ZM189.077 44.5273H190.611V46.2973C191.005 45.7073 191.496 45.2157 192.086 44.8223C192.676 44.4683 193.306 44.2913 193.974 44.2913C194.879 44.2913 195.607 44.6257 196.157 45.2943C196.669 46.0023 196.924 47.0643 196.924 48.4803V54.5573H195.39V48.5393C195.39 47.5167 195.233 46.789 194.918 46.3563C194.564 45.8843 194.112 45.6483 193.561 45.6483C193.089 45.6483 192.637 45.786 192.204 46.0613C191.732 46.3367 191.339 46.7103 191.024 47.1823C190.749 47.6543 190.611 48.1853 190.611 48.7753V54.5573H189.077V44.5273ZM203.596 35.7363V0.926326H207.136V35.7363H203.596ZM208.906 35.7363V0.926326H212.446V35.7363H208.906ZM215.986 35.7363V0.926326H219.526V35.7363H215.986ZM223.956 35.7363V0.926326H225.726V35.7363H223.956ZM227.496 35.7363V0.926326H234.576V35.7363H227.496ZM238.116 35.7363V0.926326H239.886V35.7363H238.116ZM233.691 54.7933C231.999 54.7933 230.583 54.2623 229.443 53.2003L230.328 51.7253L230.446 51.4893L230.623 51.6073C230.623 51.6467 230.623 51.7057 230.623 51.7843C230.662 51.9023 230.701 52.0007 230.741 52.0793C230.819 52.1973 230.898 52.3153 230.977 52.4333C231.331 52.748 231.724 53.0037 232.157 53.2003C232.589 53.3577 233.12 53.4363 233.75 53.4363C234.536 53.4363 235.166 53.2987 235.638 53.0233C236.07 52.748 236.287 52.3547 236.287 51.8433C236.287 51.4107 236.11 51.0567 235.756 50.7813C235.402 50.506 234.733 50.2307 233.75 49.9553C231.232 49.208 229.974 48.1657 229.974 46.8283C229.974 46.0417 230.308 45.432 230.977 44.9993C231.606 44.5273 232.511 44.2913 233.691 44.2913C234.595 44.2913 235.362 44.429 235.992 44.7043C236.621 44.9403 237.191 45.3337 237.703 45.8843L236.759 46.9463L236.641 47.1233L236.523 47.0053C236.523 46.848 236.483 46.73 236.405 46.6513C236.365 46.5333 236.267 46.4153 236.11 46.2973C235.756 46.022 235.382 45.8253 234.989 45.7073C234.556 45.55 234.143 45.4713 233.75 45.4713C233.12 45.4713 232.589 45.5893 232.157 45.8253C231.763 46.022 231.567 46.317 231.567 46.7103C231.567 47.1037 231.783 47.438 232.216 47.7133C232.609 48.028 233.337 48.3427 234.399 48.6573C235.657 49.0507 236.542 49.4637 237.054 49.8963C237.604 50.329 237.88 50.919 237.88 51.6663C237.88 52.571 237.526 53.3183 236.818 53.9083C236.11 54.4983 235.067 54.7933 233.691 54.7933ZM244.315 35.7363V0.926326H246.085V35.7363H244.315ZM249.625 35.7363V0.926326H256.705V35.7363H249.625ZM258.475 35.7363V0.926326H260.245V35.7363H258.475ZM258.298 53.6133C257.354 54.3607 256.292 54.7343 255.112 54.7343C254.011 54.7343 253.224 54.4 252.752 53.7313C252.28 53.0233 252.044 51.922 252.044 50.4273C252.044 50.152 252.064 49.7193 252.103 49.1293L252.339 45.8253H250.097V44.5273H252.398L252.575 41.8723L254.286 41.5773H254.522V41.6953C254.444 41.8133 254.385 41.9313 254.345 42.0493C254.267 42.1673 254.227 42.3247 254.227 42.5213L253.991 44.5273H257.295V45.8253H253.873L253.696 49.2473C253.657 49.8373 253.637 50.211 253.637 50.3683C253.637 51.5483 253.775 52.3547 254.05 52.7873C254.326 53.1807 254.758 53.3773 255.348 53.3773C255.781 53.3773 256.194 53.2987 256.587 53.1413C256.941 52.984 257.354 52.7283 257.826 52.3743L258.298 53.6133ZM264.675 35.7363V0.926326H266.445V35.7363H264.675ZM269.985 35.7363V0.926326H277.065V35.7363H269.985ZM280.605 35.7363V0.926326H282.375V35.7363H280.605ZM273.761 54.7933C272.699 54.7933 271.853 54.4 271.224 53.6133C270.595 52.8267 270.3 51.6663 270.339 50.1323V44.5273H271.873V50.1323C271.873 51.3123 272.089 52.1777 272.522 52.7283C272.915 53.279 273.466 53.5543 274.174 53.5543C274.921 53.5543 275.551 53.2397 276.062 52.6103C276.613 52.0203 276.888 51.1747 276.888 50.0733V44.5273H278.422V53.0233C278.422 53.3773 278.422 53.6527 278.422 53.8493C278.461 54.0853 278.52 54.3213 278.599 54.5573H277.124C277.006 54.3213 276.947 54.0853 276.947 53.8493C276.908 53.6527 276.888 53.3773 276.888 53.0233C276.573 53.574 276.141 54.0067 275.59 54.3213C275.039 54.636 274.43 54.7933 273.761 54.7933ZM285.035 35.7363V0.926326H286.805V35.7363H285.035ZM293.885 35.7363V0.926326H295.655V35.7363H293.885ZM299.195 35.7363V0.926326H302.735V35.7363H299.195ZM294.416 54.7933C293.708 54.7933 293.039 54.577 292.41 54.1443C291.78 53.751 291.269 53.161 290.876 52.3743C290.482 51.5483 290.286 50.565 290.286 49.4243C290.286 48.2837 290.482 47.32 290.876 46.5333C291.308 45.786 291.839 45.2157 292.469 44.8223C293.098 44.4683 293.767 44.2913 294.475 44.2913C295.183 44.2913 295.773 44.429 296.245 44.7043C296.756 45.019 297.149 45.4517 297.425 46.0023V39.9843H299.077V40.1023C298.998 40.2203 298.939 40.3187 298.9 40.3973C298.9 40.5153 298.9 40.6923 298.9 40.9283V53.0233C298.9 53.3773 298.919 53.6527 298.959 53.8493C298.959 54.0853 299.018 54.3213 299.136 54.5573H297.602C297.484 54.3213 297.405 54.0853 297.366 53.8493C297.366 53.6527 297.366 53.3773 297.366 53.0233C297.051 53.574 296.638 54.0067 296.127 54.3213C295.615 54.636 295.045 54.7933 294.416 54.7933ZM294.652 53.3773C295.556 53.3773 296.225 53.0233 296.658 52.3153C297.09 51.6073 297.307 50.6633 297.307 49.4833C297.307 48.3033 297.071 47.3593 296.599 46.6513C296.127 45.9433 295.438 45.5893 294.534 45.5893C293.668 45.5893 293 45.904 292.528 46.5333C292.056 47.202 291.82 48.087 291.82 49.1883C291.82 50.4863 292.056 51.509 292.528 52.2563C293.039 53.0037 293.747 53.3773 294.652 53.3773ZM305.394 35.7363V0.926326H307.164V35.7363H305.394ZM314.244 35.7363V0.926326H317.784V35.7363H314.244ZM319.554 35.7363V0.926326H321.324V35.7363H319.554ZM311.825 53.2593H314.421V45.8253H311.943V44.5273H315.955V53.2593H318.315V54.5573H311.825V53.2593ZM315.129 42.4033C314.814 42.4033 314.539 42.305 314.303 42.1083C314.106 41.8723 314.008 41.597 314.008 41.2823C314.008 40.9677 314.106 40.712 314.303 40.5153C314.5 40.2793 314.775 40.1613 315.129 40.1613C315.404 40.1613 315.66 40.2793 315.896 40.5153C316.132 40.7513 316.25 41.007 316.25 41.2823C316.25 41.597 316.132 41.8723 315.896 42.1083C315.66 42.305 315.404 42.4033 315.129 42.4033ZM325.754 35.7363V0.926326H327.524V35.7363H325.754ZM332.834 35.7363V0.926326H339.914V35.7363H332.834ZM341.684 35.7363V0.926326H343.454V35.7363H341.684ZM335.489 54.7343C334.584 54.7343 333.778 54.518 333.07 54.0853C332.401 53.6527 331.87 53.043 331.477 52.2563C331.044 51.4697 330.828 50.565 330.828 49.5423C330.828 48.5197 331.044 47.615 331.477 46.8283C331.87 46.0417 332.401 45.432 333.07 44.9993C333.778 44.5273 334.584 44.2913 335.489 44.2913C336.393 44.2913 337.18 44.5273 337.849 44.9993C338.557 45.432 339.107 46.0417 339.501 46.8283C339.894 47.615 340.091 48.5197 340.091 49.5423C340.091 50.565 339.894 51.4697 339.501 52.2563C339.107 53.043 338.557 53.6527 337.849 54.0853C337.18 54.518 336.393 54.7343 335.489 54.7343ZM335.489 53.4363C336.039 53.4363 336.551 53.2593 337.023 52.9053C337.455 52.5907 337.809 52.1383 338.085 51.5483C338.321 50.919 338.439 50.2307 338.439 49.4833C338.439 48.3427 338.163 47.4183 337.613 46.7103C337.062 46.0023 336.354 45.6483 335.489 45.6483C334.623 45.6483 333.915 46.0023 333.365 46.7103C332.814 47.4183 332.539 48.3427 332.539 49.4833C332.539 50.2307 332.657 50.919 332.893 51.5483C333.168 52.1383 333.522 52.5907 333.955 52.9053C334.387 53.2593 334.899 53.4363 335.489 53.4363Z"
     fill="white"
     id="path2"
     style="fill:#ffffff;fill-opacity:1" />
</svg>
