<?xml version="1.0" encoding="UTF-8" standalone="no"?>
<svg
   xmlns:dc="http://purl.org/dc/elements/1.1/"
   xmlns:cc="http://creativecommons.org/ns#"
   xmlns:rdf="http://www.w3.org/1999/02/22-rdf-syntax-ns#"
   xmlns:svg="http://www.w3.org/2000/svg"
   xmlns="http://www.w3.org/2000/svg"
   xmlns:sodipodi="http://sodipodi.sourceforge.net/DTD/sodipodi-0.dtd"
   xmlns:inkscape="http://www.inkscape.org/namespaces/inkscape"
   inkscape:version="1.0 (4035a4fb49, 2020-05-01)"
   sodipodi:docname="wall.svg"
   id="svg115"
   version="1.1"
   fill="none"
   viewBox="0 0 1600 1408"
   height="1408"
   width="1600">
  <metadata
     id="metadata119">
    <rdf:RDF>
      <cc:Work
         rdf:about="">
        <dc:format>image/svg+xml</dc:format>
        <dc:type
           rdf:resource="http://purl.org/dc/dcmitype/StillImage" />
      </cc:Work>
    </rdf:RDF>
  </metadata>
  <sodipodi:namedview
     inkscape:current-layer="svg115"
     inkscape:window-maximized="1"
     inkscape:window-y="-8"
     inkscape:window-x="1272"
     inkscape:cy="657.50685"
     inkscape:cx="-107.39445"
     inkscape:zoom="0.43591526"
     showgrid="false"
     id="namedview117"
     inkscape:window-height="1017"
     inkscape:window-width="1920"
     inkscape:pageshadow="2"
     inkscape:pageopacity="0"
     guidetolerance="10"
     gridtolerance="10"
     objecttolerance="10"
     borderopacity="1"
     bordercolor="#666666"
     pagecolor="#ffffff" />
  <path
     sodipodi:nodetypes="ccccc"
     id="path2"
     fill="url(#paint0_linear)"
     d="M 662.646,190.285 658.961,1506.87 488.777,1408.38 490.462,90.1274 Z" />
  <path
     sodipodi:nodetypes="ccccc"
     id="path4"
     fill="url(#paint1_linear)"
     d="M 87.0926,328.978 83.407,1645.23 0,1598.33 3.68509,281.743 Z" />
  <path
     id="path6"
     fill="url(#paint2_linear)"
     d="M492.463 92.1274L488.777 1408.38L81.4073 1645.23L85.0924 328.978L492.463 92.1274Z" />
  <path
     id="path8"
     fill-opacity="0.9"
     fill="url(#paint3_linear)"
     d="M492.463 92.1274L488.777 1408.38L81.4073 1645.23L85.0924 328.978L492.463 92.1274Z" />
  <path
     sodipodi:nodetypes="ccccc"
     id="path10"
     fill-opacity="0.1"
     fill="url(#paint4_linear)"
     d="M 494.463,90.1274 488.777,1408.38 81.4073,1645.23 85.0924,328.978 Z" />
  <path
     sodipodi:nodetypes="ccccc"
     id="path12"
     fill="url(#paint5_linear)"
     d="M 917.587,337.688 913.902,1653.94 746.733,1557.45 748.418,239.206 Z" />
  <path
     sodipodi:nodetypes="ccccc"
     id="path14"
     fill="url(#paint6_linear)"
     d="M 345.049,478.058 341.364,1794.3 251.592,1743.38 255.277,427.136 Z" />
  <path
     id="path16"
     fill="url(#paint7_linear)"
     d="M750.419 241.206L746.734 1557.45L339.364 1794.3L343.049 478.057L750.419 241.206Z" />
  <path
     id="path18"
     fill-opacity="0.9"
     fill="url(#paint8_linear)"
     d="M750.419 241.206L746.734 1557.45L339.364 1794.3L343.049 478.057L750.419 241.206Z" />
  <path
     sodipodi:nodetypes="ccccc"
     id="path20"
     fill-opacity="0.1"
     fill="url(#paint9_linear)"
     d="M 752.419,239.206 746.734,1557.45 339.364,1794.3 343.049,478.057 Z" />
  <path
     id="path22"
     fill="#161616"
     d="M1079.06 341.038L1075.38 1657.29L669.682 1895.14L673.367 578.894L1079.06 341.038Z" />
  <path
     sodipodi:nodetypes="ccccc"
     style="fill:url(#paint10_linear)"
     id="path24"
     fill="url(#paint10_linear)"
     d="m 1440.19,639.876 -5.68,1318.245 -178.23,-102.84 4.02,-1318.253 z" />
  <path
     id="path26"
     fill="url(#paint11_linear)"
     d="M1423.79 744.39L1420.1 2060.64L1338.69 2013.74L1342.38 697.489L1423.79 744.39Z" />
  <path
     style="stroke-width:1.00014"
     sodipodi:nodetypes="ccccc"
     id="path28"
     fill="#111111"
     d="m 1600,641.426 -3.69,1316.2902 -178.21,102.5238 5.69,-1316.29731 z" />
  <path
     sodipodi:nodetypes="ccccc"
     id="path30"
     fill="url(#paint12_linear)"
     d="m 512.898,575.879 -4.02,1316.251 345.383,197.99 3.685,-1318.251 z" />
  <path
     sodipodi:nodetypes="ccccc"
     style="fill:url(#paint13_linear)"
     id="path32"
     fill="url(#paint13_linear)"
     d="m 1262.3,537.028 -4.02,1316.253 -406.019,236.839 3.685,-1316.251 z" />
  <path
     style="fill:url(#paint14_linear)"
     id="path34"
     fill-opacity="0.9"
     fill="url(#paint14_linear)"
     d="m 1262.3,537.02891 -4.02,1316.25209 -404.01902,234.84 3.685,-1316.25109 z" />
  <path
     sodipodi:nodetypes="ccccccccccccccccccccc"
     id="path36"
     fill="#353535"
     d="m 1600,641.876 -176.21,102.513 -81.41,-46.902 95.81,-55.611 L 1260.3,539.028 855.947,773.869 512.898,575.879 915.588,337.688 750.419,243.206 343.049,480.057 255.277,427.136 660.647,190.285 492.463,94.1273 85.0926,330.978 3.68555,281.742 488.443,0 1079.06,343.038 673.367,580.894 843.886,677.387 1251.59,440.536 Z" />
  <defs
     id="defs113">
    <linearGradient
       gradientUnits="userSpaceOnUse"
       y2="1028.31"
       x2="334.147"
       y1="1028.31"
       x1="825.94"
       id="paint0_linear">
      <stop
         id="stop38"
         stop-color="#1B1A1A"
         offset="0.567708" />
      <stop
         id="stop40"
         offset="1" />
    </linearGradient>
    <linearGradient
       gradientUnits="userSpaceOnUse"
       y2="1645.23"
       x2="42.5461"
       y1="281.743"
       x1="42.5461"
       id="paint1_linear">
      <stop
         id="stop43"
         stop-color="#252525" />
      <stop
         id="stop45"
         stop-color="#191919"
         offset="1" />
    </linearGradient>
    <linearGradient
       gradientUnits="userSpaceOnUse"
       y2="1119.87"
       x2="-284.162"
       y1="1119.87"
       x1="878.515"
       id="paint2_linear">
      <stop
         id="stop48" />
      <stop
         id="stop50"
         stop-color="#191919"
         offset="0.666667" />
    </linearGradient>
    <linearGradient
       gradientUnits="userSpaceOnUse"
       y2="2211.31"
       x2="1812.59"
       y1="484.607"
       x1="-35.0912"
       id="paint3_linear">
      <stop
         id="stop53"
         stop-opacity="0" />
      <stop
         id="stop55"
         offset="0.379211" />
    </linearGradient>
    <linearGradient
       gradientUnits="userSpaceOnUse"
       y2="1457.94"
       x2="1026.23"
       y1="92.1274"
       x1="81.4073"
       id="paint4_linear">
      <stop
         id="stop58"
         stop-color="#939393" />
      <stop
         id="stop60"
         stop-opacity="0"
         offset="0.479167" />
    </linearGradient>
    <linearGradient
       gradientUnits="userSpaceOnUse"
       y2="1176.06"
       x2="594.785"
       y1="1176.06"
       x1="1078.05"
       id="paint5_linear">
      <stop
         id="stop63"
         stop-color="#1B1A1A"
         offset="0.567708" />
      <stop
         id="stop65"
         offset="1" />
    </linearGradient>
    <linearGradient
       gradientUnits="userSpaceOnUse"
       y2="1794.31"
       x2="297.32"
       y1="427.136"
       x1="297.32"
       id="paint6_linear">
      <stop
         id="stop68"
         stop-color="#252525" />
      <stop
         id="stop70"
         stop-color="#191919"
         offset="1" />
    </linearGradient>
    <linearGradient
       gradientUnits="userSpaceOnUse"
       y2="1268.95"
       x2="-26.2058"
       y1="1268.95"
       x1="1136.47"
       id="paint7_linear">
      <stop
         id="stop73" />
      <stop
         id="stop75"
         stop-color="#191919"
         offset="0.666667" />
    </linearGradient>
    <linearGradient
       gradientUnits="userSpaceOnUse"
       y2="1912.5"
       x2="958.708"
       y1="121.432"
       x1="498.463"
       id="paint8_linear">
      <stop
         id="stop78"
         stop-opacity="0" />
      <stop
         id="stop80"
         offset="1" />
    </linearGradient>
    <linearGradient
       gradientUnits="userSpaceOnUse"
       y2="1017.76"
       x2="1249.81"
       y1="398.883"
       x1="617.279"
       id="paint9_linear">
      <stop
         id="stop83"
         stop-color="#333333" />
      <stop
         id="stop85"
         stop-opacity="0"
         offset="0.359375" />
    </linearGradient>
    <linearGradient
       gradientTransform="translate(0,10e-4)"
       gradientUnits="userSpaceOnUse"
       y2="1478.09"
       x2="1094.5"
       y1="1478.09"
       x1="1609.04"
       id="paint10_linear">
      <stop
         id="stop88"
         stop-color="#191919"
         offset="0.526042" />
      <stop
         id="stop90"
         offset="1" />
    </linearGradient>
    <linearGradient
       gradientUnits="userSpaceOnUse"
       y2="2060.64"
       x2="1381.24"
       y1="697.489"
       x1="1381.24"
       id="paint11_linear">
      <stop
         id="stop93"
         stop-color="#252525" />
      <stop
         id="stop95"
         stop-color="#191919"
         offset="1" />
    </linearGradient>
    <linearGradient
       gradientUnits="userSpaceOnUse"
       y2="2090.12"
       x2="682.412"
       y1="575.879"
       x1="682.412"
       id="paint12_linear">
      <stop
         id="stop98"
         stop-color="#252525" />
      <stop
         id="stop100"
         stop-color="#191919"
         offset="1" />
    </linearGradient>
    <linearGradient
       gradientTransform="translate(2e-6)"
       gradientUnits="userSpaceOnUse"
       y2="1565.44"
       x2="489.373"
       y1="1565.44"
       x1="1643.52"
       id="paint13_linear">
      <stop
         id="stop103" />
      <stop
         id="stop105"
         stop-color="#191919"
         offset="0.664667" />
    </linearGradient>
    <linearGradient
       gradientTransform="translate(1.99998,-1.9990889)"
       gradientUnits="userSpaceOnUse"
       y2="1401.48"
       x2="1056.28"
       y1="1392.08"
       x1="640.609"
       id="paint14_linear">
      <stop
         id="stop108"
         stop-color="#151515" />
      <stop
         id="stop110"
         stop-opacity="0"
         offset="1" />
    </linearGradient>
  </defs>
</svg>
