<svg width="1600" height="1408" viewBox="0 0 1600 1408" fill="none" xmlns="http://www.w3.org/2000/svg">
<path d="M662.646 190.285L658.961 1506.87L488.777 1408.38L492.462 92.1274L662.646 190.285Z" fill="url(#paint0_linear)"/>
<path d="M85.0921 328.979L81.407 1645.23L0 1598.33L3.68509 281.743L85.0921 328.979Z" fill="url(#paint1_linear)"/>
<path d="M492.463 92.1274L488.777 1408.38L81.4073 1645.23L85.0924 328.978L492.463 92.1274Z" fill="url(#paint2_linear)"/>
<path d="M492.463 92.1274L488.777 1408.38L81.4073 1645.23L85.0924 328.978L492.463 92.1274Z" fill="url(#paint3_linear)" fill-opacity="0.9"/>
<path d="M492.463 92.1274L488.777 1408.38L81.4073 1645.23L85.0924 328.978L492.463 92.1274Z" fill="url(#paint4_linear)" fill-opacity="0.1"/>
<path d="M917.587 337.688L913.902 1653.94L746.733 1557.45L750.418 241.206L917.587 337.688Z" fill="url(#paint5_linear)"/>
<path d="M343.049 478.058L339.364 1794.31L251.592 1743.38L255.277 427.136L343.049 478.058Z" fill="url(#paint6_linear)"/>
<path d="M750.419 241.206L746.734 1557.45L339.364 1794.3L343.049 478.057L750.419 241.206Z" fill="url(#paint7_linear)"/>
<path d="M750.419 241.206L746.734 1557.45L339.364 1794.3L343.049 478.057L750.419 241.206Z" fill="url(#paint8_linear)" fill-opacity="0.9"/>
<path d="M750.419 241.206L746.734 1557.45L339.364 1794.3L343.049 478.057L750.419 241.206Z" fill="url(#paint9_linear)" fill-opacity="0.1"/>
<path d="M1079.06 341.038L1075.38 1657.29L669.682 1895.14L673.367 578.894L1079.06 341.038Z" fill="#161616"/>
<path d="M1438.19 641.875L1434.51 1958.12L1256.28 1855.28L1260.3 539.028L1438.19 641.875Z" fill="url(#paint10_linear)"/>
<path d="M1423.79 744.39L1420.1 2060.64L1338.69 2013.74L1342.38 697.489L1423.79 744.39Z" fill="url(#paint11_linear)"/>
<path d="M1600 641.876L1596.31 1958.12L1420.1 2060.64L1423.79 744.389L1600 641.876Z" fill="#111111"/>
<path d="M512.898 575.879L508.878 1892.13L852.261 2090.12L855.946 773.869L512.898 575.879Z" fill="url(#paint12_linear)"/>
<path d="M1260.3 539.028L1256.28 1855.28L852.261 2090.12L855.946 773.869L1260.3 539.028Z" fill="url(#paint13_linear)"/>
<path d="M1260.3 539.028L1256.28 1855.28L852.261 2090.12L855.946 773.869L1260.3 539.028Z" fill="url(#paint14_linear)" fill-opacity="0.9"/>
<path d="M1600 641.876L1423.79 744.389L1342.38 697.487L1438.19 641.876L1260.3 539.028L855.947 773.869L512.898 575.879L917.588 337.688L750.419 241.206L343.049 478.057L255.277 427.136L662.647 190.285L492.463 92.1273L85.0926 328.978L3.68555 281.742L488.443 0L1079.06 341.038L673.367 578.894L843.886 677.387L1251.59 440.536L1600 641.876Z" fill="#353535"/>
<defs>
<linearGradient id="paint0_linear" x1="825.94" y1="1028.31" x2="334.147" y2="1028.31" gradientUnits="userSpaceOnUse">
<stop offset="0.567708" stop-color="#1B1A1A"/>
<stop offset="1"/>
</linearGradient>
<linearGradient id="paint1_linear" x1="42.5461" y1="281.743" x2="42.5461" y2="1645.23" gradientUnits="userSpaceOnUse">
<stop stop-color="#252525"/>
<stop offset="1" stop-color="#191919"/>
</linearGradient>
<linearGradient id="paint2_linear" x1="878.515" y1="1119.87" x2="-284.162" y2="1119.87" gradientUnits="userSpaceOnUse">
<stop/>
<stop offset="0.666667" stop-color="#191919"/>
</linearGradient>
<linearGradient id="paint3_linear" x1="-35.0912" y1="484.607" x2="1812.59" y2="2211.31" gradientUnits="userSpaceOnUse">
<stop stop-opacity="0"/>
<stop offset="0.379211"/>
</linearGradient>
<linearGradient id="paint4_linear" x1="81.4073" y1="92.1274" x2="1026.23" y2="1457.94" gradientUnits="userSpaceOnUse">
<stop stop-color="#939393"/>
<stop offset="0.479167" stop-opacity="0"/>
</linearGradient>
<linearGradient id="paint5_linear" x1="1078.05" y1="1176.06" x2="594.785" y2="1176.06" gradientUnits="userSpaceOnUse">
<stop offset="0.567708" stop-color="#1B1A1A"/>
<stop offset="1"/>
</linearGradient>
<linearGradient id="paint6_linear" x1="297.32" y1="427.136" x2="297.32" y2="1794.31" gradientUnits="userSpaceOnUse">
<stop stop-color="#252525"/>
<stop offset="1" stop-color="#191919"/>
</linearGradient>
<linearGradient id="paint7_linear" x1="1136.47" y1="1268.95" x2="-26.2058" y2="1268.95" gradientUnits="userSpaceOnUse">
<stop/>
<stop offset="0.666667" stop-color="#191919"/>
</linearGradient>
<linearGradient id="paint8_linear" x1="498.463" y1="121.432" x2="958.708" y2="1912.5" gradientUnits="userSpaceOnUse">
<stop stop-opacity="0"/>
<stop offset="1"/>
</linearGradient>
<linearGradient id="paint9_linear" x1="617.279" y1="398.883" x2="1249.81" y2="1017.76" gradientUnits="userSpaceOnUse">
<stop stop-color="#333333"/>
<stop offset="0.359375" stop-opacity="0"/>
</linearGradient>
<linearGradient id="paint10_linear" x1="1609.04" y1="1478.09" x2="1094.5" y2="1478.09" gradientUnits="userSpaceOnUse">
<stop offset="0.526042" stop-color="#191919"/>
<stop offset="1"/>
</linearGradient>
<linearGradient id="paint11_linear" x1="1381.24" y1="697.489" x2="1381.24" y2="2060.64" gradientUnits="userSpaceOnUse">
<stop stop-color="#252525"/>
<stop offset="1" stop-color="#191919"/>
</linearGradient>
<linearGradient id="paint12_linear" x1="682.412" y1="575.879" x2="682.412" y2="2090.12" gradientUnits="userSpaceOnUse">
<stop stop-color="#252525"/>
<stop offset="1" stop-color="#191919"/>
</linearGradient>
<linearGradient id="paint13_linear" x1="1643.52" y1="1565.44" x2="489.373" y2="1565.44" gradientUnits="userSpaceOnUse">
<stop/>
<stop offset="0.664667" stop-color="#191919"/>
</linearGradient>
<linearGradient id="paint14_linear" x1="640.609" y1="1392.08" x2="1056.28" y2="1401.48" gradientUnits="userSpaceOnUse">
<stop stop-color="#151515"/>
<stop offset="1" stop-opacity="0"/>
</linearGradient>
</defs>
</svg>
